<svg width="24" height="24" viewBox="0 0 24 24" fill="none" xmlns="http://www.w3.org/2000/svg">
<path d="M21 19L15.846 13.846C16.7988 12.3979 17.1804 10.6477 16.917 8.93442C16.6535 7.22111 15.7637 5.66648 14.4199 4.57154C13.076 3.47659 11.3737 2.91923 9.64246 3.00735C7.91125 3.09547 6.2743 3.82281 5.04857 5.04855C3.82283 6.27429 3.09549 7.91123 3.00736 9.64245C2.91924 11.3737 3.47661 13.076 4.57155 14.4199C5.66649 15.7637 7.22112 16.6535 8.93444 16.917C10.6478 17.1804 12.3979 16.7988 13.846 15.846L19 21L21 19ZM4.99999 9.99998C4.99999 7.24298 7.24299 4.99998 9.99999 4.99998C12.757 4.99998 15 7.24298 15 9.99998C15 12.757 12.757 15 9.99999 15C7.24299 15 4.99999 12.757 4.99999 9.99998Z" fill="white"/>
</svg>
